<svg width="55" height="55" viewBox="0 0 55 55" fill="none" xmlns="http://www.w3.org/2000/svg">
<g clip-path="url(#clip0_3_10)">
<path d="M27.0772 1.37021C12.403 1.37021 1.26164 11.9756 1.26164 25.0473C1.15096 27.9787 1.71758 30.8934 2.90987 33.526C4.10216 36.1586 5.88219 38.4254 8.08775 40.1196C8.82454 43.8127 8.64603 47.6519 7.57043 51.2456C7.48069 51.5723 7.47582 51.9196 7.55638 52.2491C7.63694 52.5786 7.79978 52.8775 8.02692 53.1128C8.25406 53.3482 8.53667 53.5107 8.84354 53.5826C9.15041 53.6545 9.46961 53.6329 9.76589 53.5202L23.1279 48.3819C24.4899 48.6007 25.8644 48.7152 27.2412 48.7245C41.9155 48.7245 53.7381 38.1191 53.7381 25.0473C53.7381 11.9756 41.7514 1.37021 27.0772 1.37021Z" stroke="#FFFEFE" stroke-width="2" stroke-linecap="round" stroke-linejoin="round"/>
<path d="M22.9007 48.3819C19.9002 47.7504 17.0066 46.6228 14.3208 45.0386" stroke="#FFFEFE" stroke-width="2" stroke-linecap="round" stroke-linejoin="round"/>
<path d="M16.2008 29.1031C17.8523 29.1031 19.1912 27.6492 19.1912 25.8558C19.1912 24.0623 17.8523 22.6084 16.2008 22.6084C14.5493 22.6084 13.2104 24.0623 13.2104 25.8558C13.2104 27.6492 14.5493 29.1031 16.2008 29.1031Z" fill="#FFFEFE"/>
<path d="M27.91 29.1031C29.5616 29.1031 30.9004 27.6492 30.9004 25.8558C30.9004 24.0623 29.5616 22.6084 27.91 22.6084C26.2585 22.6084 24.9197 24.0623 24.9197 25.8558C24.9197 27.6492 26.2585 29.1031 27.91 29.1031Z" fill="#FFFEFE"/>
<path d="M39.619 29.1031C41.2706 29.1031 42.6094 27.6492 42.6094 25.8558C42.6094 24.0623 41.2706 22.6084 39.619 22.6084C37.9675 22.6084 36.6287 24.0623 36.6287 25.8558C36.6287 27.6492 37.9675 29.1031 39.619 29.1031Z" fill="#FFFEFE"/>
</g>
<defs>
<clipPath id="clip0_3_10">
<rect width="55" height="55" fill="white"/>
</clipPath>
</defs>
</svg>
