<svg width="55" height="55" viewBox="0 0 55 55" fill="none" xmlns="http://www.w3.org/2000/svg">
<path d="M34.4897 11.4583C36.728 11.895 38.7852 12.9897 40.3978 14.6023C42.0104 16.2149 43.1051 18.2721 43.5418 20.5104M34.4897 2.29166C39.1401 2.80828 43.4767 4.89081 46.7873 8.1973C50.098 11.5038 52.186 15.8377 52.7084 20.4875M50.4168 38.775V45.65C50.4194 46.2882 50.2886 46.92 50.0329 47.5047C49.7773 48.0895 49.4023 48.6145 48.932 49.0459C48.4617 49.4774 47.9064 49.8059 47.3018 50.0104C46.6972 50.2148 46.0566 50.2908 45.4209 50.2333C38.3691 49.4671 31.5953 47.0574 25.6439 43.1979C20.1068 39.6794 15.4123 34.985 11.8939 29.4479C8.02089 23.4694 5.61067 16.6627 4.85844 9.57916C4.80118 8.94543 4.87649 8.30673 5.07959 7.70371C5.28269 7.10069 5.60913 6.54657 6.03812 6.07662C6.46711 5.60667 6.98925 5.2312 7.5713 4.9741C8.15335 4.71701 8.78256 4.58392 9.41886 4.58332H16.2939C17.406 4.57238 18.4842 4.96621 19.3275 5.69142C20.1707 6.41663 20.7215 7.42372 20.8772 8.52499C21.1674 10.7251 21.7055 12.8854 22.4814 14.9646C22.7897 15.7848 22.8564 16.6763 22.6736 17.5333C22.4909 18.3903 22.0663 19.1769 21.4501 19.8L18.5397 22.7104C21.802 28.4477 26.5524 33.1981 32.2897 36.4604L35.2001 33.55C35.8232 32.9338 36.6098 32.5092 37.4668 32.3265C38.3238 32.1437 39.2153 32.2104 40.0355 32.5187C42.1147 33.2946 44.275 33.8327 46.4751 34.1229C47.5883 34.28 48.605 34.8407 49.3318 35.6984C50.0585 36.5562 50.4447 37.6511 50.4168 38.775Z" stroke="#FFFEFE" stroke-width="2" stroke-linecap="round" stroke-linejoin="round"/>
</svg>
